<svg xmlns="http://www.w3.org/2000/svg" xmlns:xlink="http://www.w3.org/1999/xlink" version="1.1" x="0px" y="0px" viewBox="0 0 52 65" enable-background="new 0 0 52 52" xml:space="preserve"><g><path d="M42.7050171,15.7050171l7-7h-6.4100342V2.2949829l-7,7v4.9899902l-0.6077271,0.6077271   c-0.0023804-0.0021973-0.0046387-0.0045166-0.007019-0.0066528l-0.2537842,0.2537231L32.8510132,17.71521   c0.0024414,0.0021362,0.0045166,0.0046997,0.006958,0.0068359l-1.4133911,1.4133911   c-0.0024414-0.0021362-0.0045776-0.0046387-0.007019-0.0067749l-1.4135742,1.4135742   c0.0025024,0.0020752,0.0046387,0.0045776,0.0071411,0.0066528l-1.4172363,1.4172363   c-0.0025024-0.0020752-0.0046997-0.0045166-0.0072021-0.0065918l-1.4266357,1.4266357   c0.0025635,0.0020142,0.0048218,0.0043945,0.0073853,0.0064087l-1.4262085,1.4262085   c-0.0026855-0.0018921-0.0050049-0.0042114-0.0076904-0.0061035l-1.4533691,1.4533691   c0.0028687,0.001709,0.0053711,0.0038452,0.0082397,0.0055542l-1.5077515,1.5077515   c-0.1629639-0.0430298-0.3309326-0.0733032-0.5072632-0.0733032c-1.1025391,0-2,0.8969727-2,2s0.8974609,2,2,2s2-0.8969727,2-2   c0-0.1760254-0.0300903-0.34375-0.072998-0.5064697l1.5144653-1.5144653   c0.3537598,0.5915527,0.5585327,1.2811279,0.5585327,2.0209351c0,2.2055664-1.7939453,4-4,4s-4-1.7944336-4-4   c0-2.1015015,1.6340942-3.8109131,3.696106-3.9692993l1.8272095-1.8272095   c-0.4874268-0.1282959-0.9961548-0.2034912-1.5233154-0.2034912c-3.3085938,0-6,2.6914063-6,6s2.6914063,6,6,6s6-2.6914063,6-6   c0-1.2923584-0.4152222-2.4863281-1.1138306-3.4656372l1.4225464-1.4225464   c1.053894,1.3527222,1.6912842,3.0440063,1.6912842,4.8881836c0,4.4111328-3.5888672,8-8,8s-8-3.5888672-8-8s3.5888672-8,8-8   c1.098999,0,2.1467285,0.2232666,3.1008301,0.6259766l1.4968262-1.4968262   c-1.3781738-0.7172241-2.9396362-1.1291504-4.5976563-1.1291504c-5.5136719,0-10,4.4858398-10,10s4.4863281,10,10,10   s10-4.4858398,10-10c0-2.3959961-0.8531494-4.59198-2.263916-6.3155518l1.4107056-1.4107056   c1.7703247,2.0900269,2.8532104,4.7789917,2.8532104,7.7262573c0,6.6166992-5.3828125,12-12,12s-12-5.3833008-12-12   s5.3828125-12,12-12c2.2136841,0,4.2821655,0.6130371,6.064209,1.6625977l1.4534912-1.4534912   c-2.1745605-1.3913574-4.750061-2.2091064-7.5177002-2.2091064c-7.7197266,0-14,6.2802734-14,14s6.2802734,14,14,14   s14-6.2802734,14-14c0-3.4988403-1.309082-6.6843262-3.4404907-9.1389771l1.4159546-1.4159546   c2.4928589,2.8190308,4.0245361,6.5045776,4.0245361,10.5549316c0,8.8222656-7.1777344,16-16,16s-16-7.1777344-16-16   s7.1777344-16,16-16c3.3214111,0,6.4086304,1.0187378,8.9686279,2.7581787l2.7444458-2.7444458l0.1108398-0.1108398   c-3.3161011-2.4420776-7.3964233-3.9039307-11.8223267-3.9039307c-11.0299683,0-20,8.9699707-20,20   c0,11.0299683,8.9700317,20,20,20c11.0300293,0,20-8.9700317,20-20c0-5.1547852-1.9714966-9.8462524-5.1873169-13.3927002   l0.6073608-0.6072998H42.7050171z"/></g><text x="0" y="67" fill="#000000" font-size="5px" font-weight="bold" font-family="'Helvetica Neue', Helvetica, Arial-Unicode, Arial, Sans-serif">Created by Dinosoft Labs</text><text x="0" y="72" fill="#000000" font-size="5px" font-weight="bold" font-family="'Helvetica Neue', Helvetica, Arial-Unicode, Arial, Sans-serif">from the Noun Project</text></svg>