<svg xmlns="http://www.w3.org/2000/svg" xmlns:xlink="http://www.w3.org/1999/xlink" version="1.1" x="0px" y="0px" viewBox="0 0 52 65" enable-background="new 0 0 52 52" xml:space="preserve"><g><path d="M43.0869141,3.5171204c-0.8007813-1.1318359-2.1064453-1.8076172-3.4931641-1.8076172   c-1.335022,0-2.5504761,0.6384888-3.3447266,1.6383057c-0.0132446-0.0168457-0.0206909-0.0366821-0.0341797-0.0533447   c-0.8164063-1.0073242-2.0283203-1.5849609-3.3242188-1.5849609h-0.1894531c-1.3171997,0-2.4978638,0.6159668-3.2868652,1.5699463   c-0.055542-0.0675659-0.0975342-0.1443481-0.1574707-0.2086182c-0.8066406-0.8652344-1.9472656-1.3613281-3.1298828-1.3613281   h-0.2539063c-1.1835938,0-2.3251953,0.496582-3.1308594,1.3623047c-0.0596313,0.0639648-0.1012573,0.1403809-0.1565552,0.2075806   c-0.7890625-0.9539185-1.9696655-1.5698853-3.2868042-1.5698853H19.109375c-1.2968845,0-2.5087891,0.5776367-3.3242188,1.5844727   c-0.0135498,0.0167236-0.0210571,0.0366211-0.0343018,0.0535278C14.956604,2.3479309,13.7412109,1.7095032,12.40625,1.7095032   c-1.3867188,0-2.6923828,0.6757813-3.4931641,1.8076172S7.9101563,6.105011,8.3710938,7.4126282l10.552063,29.8978271v2.8800049   h14.1500244v-2.8696289L43.6289063,7.4126282C44.0898438,6.105011,43.8876953,4.6489563,43.0869141,3.5171204z    M28.8346558,36.139679h-0.5465698l0.2877197-4.0756836h1.1219482L28.8346558,36.139679z M26.2828369,36.139679h-0.5656738   l-0.2878418-4.0756836h1.1413574L26.2828369,36.139679z M23.7119141,36.139679h-0.5465698l-0.8630371-4.0756836h1.1218872   L23.7119141,36.139679z M21.1201172,36.139679h-0.4892578l-1.4383545-4.0756836h1.0646362L21.1201172,36.139679z    M30.8798828,36.139679l0.8630371-4.0756836h1.0645752l-1.4383545,4.0756836H30.8798828z M32.7011719,3.7095032h0.1894531   c0.6904297,0,1.3359375,0.3076172,1.7705078,0.8442383c0.4335327,0.5348511,0.6010742,1.2280884,0.4594727,1.9019165   l-4.9993286,23.6083374H28.71698l1.7107544-24.2363281C30.5117188,4.6401672,31.5107422,3.7095032,32.7011719,3.7095032z    M24.2050781,4.4350891c0.4355469-0.4677734,1.0283203-0.7255859,1.6679688-0.7255859h0.2539063   c0.6396484,0,1.2314453,0.2573242,1.6669922,0.7250977c0.4355469,0.4672852,0.6513672,1.0761719,0.6064453,1.7143555   l-1.3204346,18.7042236l-0.367981,5.2108154h-1.4239502l-0.3395386-4.8074951L23.5996094,6.148468   C23.5546875,5.511261,23.7695313,4.9028625,24.2050781,4.4350891z M17.3388672,4.5532532   c0.4345703-0.5361328,1.0800781-0.84375,1.7705078-0.84375h0.1894531c1.1904297,0,2.1894531,0.9306641,2.2734375,2.1181641   L23.28302,30.0639954h-1.4042358L16.8793335,6.4548035C16.7380371,5.7807922,16.9055176,5.0883484,17.3388672,4.5532532z    M10.5458984,4.6723938c0.4335938-0.6118164,1.1113281-0.9628906,1.8603516-0.9628906   c1.0703125,0,2.0078125,0.7597656,2.2294922,1.8066406l0.2866821,1.3537598   c0.0003052,0.0015259,0.0001221,0.0031128,0.0004272,0.0046387l4.0240479,19.0016479l0.8867188,4.1878052h-1.3469238   L10.2578125,6.7466125C10.0078125,6.0400696,10.1132813,5.2842102,10.5458984,4.6723938z M41.7421875,6.7466125   l-8.2288818,23.3173828h-1.3469238l1.1896973-5.6182251l3.7210693-17.571228   c0.0002441-0.0012207,0.0001221-0.0025024,0.0003662-0.0037231l0.2867432-1.354187   c0.2216797-1.0473633,1.1591797-1.8071289,2.2294922-1.8071289c0.7490234,0,1.4267578,0.3510742,1.8603516,0.9628906   C41.8867188,5.2842102,41.9921875,6.0400696,41.7421875,6.7466125z"/><path d="M18.9231567,43.2204895c0,3.9000244,3.1799927,7.0700073,7.0800171,7.0700073   c3.8999634,0,7.0700073-3.1699829,7.0700073-7.0700073v-1.0300293H18.9231567V43.2204895z"/></g><text x="0" y="67" fill="#000000" font-size="5px" font-weight="bold" font-family="'Helvetica Neue', Helvetica, Arial-Unicode, Arial, Sans-serif">Created by Dinosoft Labs</text><text x="0" y="72" fill="#000000" font-size="5px" font-weight="bold" font-family="'Helvetica Neue', Helvetica, Arial-Unicode, Arial, Sans-serif">from the Noun Project</text></svg>