<svg xmlns="http://www.w3.org/2000/svg" xmlns:xlink="http://www.w3.org/1999/xlink" version="1.1" x="0px" y="0px" viewBox="0 0 52 65" enable-background="new 0 0 52 52" xml:space="preserve"><g><circle cx="11.0251989" cy="16.9818745" r="6"/><path d="M49.105217,11.3818989c-0.5800171,0.5800171-1.3500366,0.8800049-2.1199951,0.8800049   c-0.4200439,0-0.8500366-0.0900269-1.2400513-0.2700195L12.7852087,49.121891   c-0.3699951,0.3699951-1.0800171,0.8599854-2.1799927,0.8599854c-0.5100098,0-1.1100464-0.1099854-1.8000488-0.3699951   c-1.2399902-0.4799805-2.5899658-1.4099731-3.7999878-2.6199951c-2.4599612-2.460022-4.0700073-5.8200073-2.1199954-7.7700195   L40.0151901,6.2619038c-0.5-1.1099854-0.2999878-2.460022,0.6099854-3.3699951   c1.1700439-1.1700438,3.0700073-1.1600341,4.2399902,0l4.2400513,4.25   C50.2751999,8.3118916,50.2751999,10.211916,49.105217,11.3818989z"/></g><text x="0" y="67" fill="#000000" font-size="5px" font-weight="bold" font-family="'Helvetica Neue', Helvetica, Arial-Unicode, Arial, Sans-serif">Created by Dinosoft Labs</text><text x="0" y="72" fill="#000000" font-size="5px" font-weight="bold" font-family="'Helvetica Neue', Helvetica, Arial-Unicode, Arial, Sans-serif">from the Noun Project</text></svg>