<svg xmlns="http://www.w3.org/2000/svg" xmlns:xlink="http://www.w3.org/1999/xlink" version="1.1" x="0px" y="0px" viewBox="0 0 52 65" enable-background="new 0 0 52 52" xml:space="preserve"><g><path d="M42.8058472,9.7329102c-8.0305786,2.7827759-13.3782959,8.7617188-13.3831177,14.5339355   c6.1596069-0.4271851,13.1136475,0.2003174,20.5516357,2.7444458C49.9883423,26.6755371,50,26.3391113,50,26   c0-6.3768311-2.5046387-12.1774902-6.5770264-16.4807739L42.8058472,9.7329102z"/><path d="M3.3790894,18.6918945c6.2918091,0.8190308,11.1551514,3.8093262,13.3498535,8.0274658   c1.3614502-0.4361572,2.81604-0.8362427,4.3400269-1.1906738c-2.1980591-12.0261841,0.1022949-22.8187256,0.1426392-22.9998779   l0.0109863-0.0496216c-8.5339355,1.7318726-15.437439,8.0092773-18.0702515,16.1832275L3.3790894,18.6918945z"/><path d="M49.666687,29.0117188c-7.2600708-2.5376587-14.0393677-3.1675415-20.0350342-2.7658081   c0.0101929,0.0458984,0.0123901,0.0925293,0.0233154,0.1383667c1.4282227,5.9726563,8.9047852,9.8481445,17.7734375,9.199707   l0.5883179-0.0423584c0.8837891-2.0317383,1.4909668-4.2086182,1.7817383-6.4838257L49.666687,29.0117188z"/><path d="M23.1642456,2.9619141c-0.0386963,0.1743164-2.2519531,10.5973511-0.1513062,22.1523438   c1.413147-0.2744141,2.8795166-0.505188,4.4057007-0.6702881c-0.1403198-6.6546631,5.5165405-13.2801514,14.3972168-16.4737549   C37.5897827,4.2583618,32.0565186,2,26,2c-0.8980713,0-1.7835693,0.053833-2.6563721,0.1505127L23.1642456,2.9619141z"/><path d="M21.463501,27.4732666c-1.3925781,0.324707-2.7228394,0.689209-3.9731445,1.0854492   c0.0753174,0.2409668,0.1524658,0.4813843,0.2114868,0.7283936c1.2436523,5.2041016-1.3300781,10.8217773-6.8852539,15.027832   l-0.15979,0.1209717C14.8201904,47.9071045,20.1704712,50,26,50c2.722168,0,5.3364258-0.461731,7.7769775-1.3000488   C26.7077637,42.8450928,23.1431885,35.0194702,21.463501,27.4732666z"/><path d="M45.4484253,37.65625c-9.0263672,0.0004883-16.1762695-4.2705078-17.7387695-10.8071289   c-0.0340576-0.1424561-0.0460205-0.2860107-0.0744019-0.428833c-1.4642944,0.1571045-2.8712158,0.3770142-4.2266846,0.6387329   c1.6185913,7.2460327,5.0415649,14.732605,11.8396606,20.269104l0.6486816,0.5281372   c4.7096558-2.1408081,8.6096802-5.7557983,11.1050415-10.2564087C46.4805298,37.6273804,45.958313,37.65625,45.4484253,37.65625z"/><path d="M15.7565308,29.7519531c-0.0447388-0.1871338-0.1051636-0.3687744-0.161377-0.5518799   C8.5075684,31.7415771,4.244812,34.9487915,4.15448,35.0185547l-0.2978516,0.2295532   c1.2377319,2.9511719,3.0493774,5.6035767,5.2938232,7.8196411l0.4591064-0.3475342   C14.5123901,39.0083008,16.8102417,34.1606445,15.7565308,29.7519531z"/><path d="M14.8158569,27.3743896c-1.9614258-3.4974365-6.2076416-5.9849243-11.6945801-6.6990967l-0.5028687-0.0656128   C2.2184448,22.343811,2,24.1464233,2,26c0,2.5397949,0.4002075,4.9874878,1.1352539,7.2871704   C4.0669556,32.6173096,8.2839355,29.7310181,14.8158569,27.3743896z"/></g><text x="0" y="67" fill="#000000" font-size="5px" font-weight="bold" font-family="'Helvetica Neue', Helvetica, Arial-Unicode, Arial, Sans-serif">Created by Dinosoft Labs</text><text x="0" y="72" fill="#000000" font-size="5px" font-weight="bold" font-family="'Helvetica Neue', Helvetica, Arial-Unicode, Arial, Sans-serif">from the Noun Project</text></svg>