<svg xmlns="http://www.w3.org/2000/svg" xmlns:xlink="http://www.w3.org/1999/xlink" version="1.1" x="0px" y="0px" viewBox="0 0 52 65" enable-background="new 0 0 52 52" xml:space="preserve"><g><g><path d="M34.6316605,49.824707l-1.1816406-1.6132813c9.8691406-7.2246094,14.7480469-14.8300781,14.5-22.6044922    c-0.4023438-12.6367188-14.3066406-21.65625-14.4472656-21.7460938l1.0761719-1.6855469    c0.609375,0.3886719,14.9345703,9.6884766,15.3701172,23.3681641    C50.2195511,34.0170898,45.0652542,42.1870117,34.6316605,49.824707z"/></g><g><rect x="7.0408392" y="11.0180664" width="6" height="2"/></g><g><polygon points="24.2536678,17.5861816 26.2102718,20.9711914 30.0648251,20.9711914 32.0324173,17.5749512     30.0955257,14.2202148 26.1970882,14.2202148   "/><polygon points="30.2594662,22.9711914 26.016119,22.9711914 24.2594051,26.010376 26.0162411,29.050293 30.2593441,29.050293     32.0201492,26.010376   "/><path d="M17.2596493,14.2314453l1.7069702,2.3647461h3.5499268l1.9221191-3.3294678l-1.6171265-2.3536377    C20.7381649,11.6345215,18.8537655,12.7729492,17.2596493,14.2314453z"/><path d="M31.8361874,13.2358398l1.9398823,3.3603516h3.4733276l1.2658081-2.640625    c-1.5271606-1.3273926-3.3050537-2.3657227-5.2554932-3.0415039L31.8361874,13.2358398z"/><path d="M40.3707352,36.2033691c1.2111206-1.4641113,2.152771-3.1530762,2.78479-4.9851074h-2.0932617l-1.9151611,3.3068848    L40.3707352,36.2033691z"/><polygon points="22.5271664,25.0102539 24.3745174,21.8138428 22.5166683,18.5961914 18.8162289,18.5961914     16.9617367,21.8032227 18.8162289,25.0102539   "/><path d="M15.8436346,15.6877441c-1.2683716,1.4943848-2.2590332,3.2254639-2.9135742,5.1154785h2.2993164l1.9154654-3.3127441    L15.8436346,15.6877441z"/><path d="M40.0174637,15.4487305l-0.9312134,1.9425049l1.9760132,3.4119873h2.0861816    C42.4578934,18.8093262,41.3865433,16.9976807,40.0174637,15.4487305z"/><path d="M15.8324041,36.3405762l1.3120108-1.8103027l-1.9150381-3.3120117h-2.3063965    C13.5755682,33.1098633,14.564826,34.8435059,15.8324041,36.3405762z"/><path d="M24.4798641,38.8261719l-1.9633179-3.4008789h-3.5509033l-1.7193604,2.3723145    c1.696167,1.5561523,3.7171631,2.7617188,5.9614868,3.4747314L24.4798641,38.8261719z"/><path d="M30.0654964,39.8012695h-3.8383789l-1.0167236,1.9552002c0.9199829,0.1651611,1.8621826,0.2658691,2.8288574,0.2658691    c1.0355835,0,2.0458374-0.1072998,3.0272217-0.2962646L30.0654964,39.8012695z"/><path d="M26.146368,12.2202148h3.9667969l1.1477661-1.8720703c-1.0410156-0.213623-2.1185303-0.3258057-3.2216797-0.3258057    c-1.0897827,0-2.1539917,0.1112061-3.1832275,0.3197021L26.146368,12.2202148z"/><path d="M15.2293158,29.2182617l1.8544912-3.2078857l-1.8544302-3.2071533h-2.8649292    c-0.2130737,1.0400391-0.3251953,2.1165771-0.3251953,3.2191162c0,1.0941162,0.1116333,2.1627197,0.3220825,3.1959229H15.2293158z    "/><polygon points="18.8162289,33.425293 22.5166683,33.425293 24.3745174,30.2076416 22.5271664,27.0102539 18.8162289,27.0102539     16.9617367,30.2182617   "/><path d="M41.0622635,22.8032227l-1.8573608,3.2071533l1.8574829,3.2078857h2.6547852    c0.2104492-1.0332031,0.3220825-2.1018066,0.3220825-3.1959229c0-1.1025391-0.1121216-2.1790771-0.3251953-3.2191162H41.0622635z"/><polygon points="37.4734573,18.5961914 33.7759476,18.5961914 31.9088192,21.829834 33.7517586,25.0102539 37.4734573,25.0102539     39.3308792,21.8032227   "/><path d="M37.3277664,35.425293h-3.5516968l-1.9633198,3.4008789l1.2377949,2.380127    c2.2310181-0.7387695,4.2399902-1.9578857,5.9171143-3.5317383L37.3277664,35.425293z"/><polygon points="32.0324173,34.4465332 30.0648251,31.050293 26.2102718,31.050293 24.2536678,34.4353027 26.1970882,37.8012695     30.0955257,37.8012695   "/><polygon points="33.7517586,27.0102539 31.9088192,30.1916504 33.7759476,33.425293 37.4734573,33.425293 39.3308792,30.2182617     37.4734573,27.0102539   "/></g><g><rect x="2.040839" y="25.0180664" width="6" height="2"/></g></g><text x="0" y="67" fill="#000000" font-size="5px" font-weight="bold" font-family="'Helvetica Neue', Helvetica, Arial-Unicode, Arial, Sans-serif">Created by Dinosoft Labs</text><text x="0" y="72" fill="#000000" font-size="5px" font-weight="bold" font-family="'Helvetica Neue', Helvetica, Arial-Unicode, Arial, Sans-serif">from the Noun Project</text></svg>