<svg xmlns="http://www.w3.org/2000/svg" xmlns:xlink="http://www.w3.org/1999/xlink" version="1.1" x="0px" y="0px" viewBox="0 0 52 65" enable-background="new 0 0 52 52" xml:space="preserve"><g><path d="M50,1.9984131H2v39.5166016l8.204834-3.5166016h31.590332L50,41.5150146V1.9984131z M41.5859375,8.9984131h-31.171875l-5-5   h41.171875L41.5859375,8.9984131z M11,15.9984131h5v4h-5V15.9984131z M24,21.9984131h4v4h-4V21.9984131z M22,25.9984131h-4v-4h4   V25.9984131z M24,19.9984131v-4h4v4H24z M22,19.9984131h-4v-4h4V19.9984131z M11,21.9984131h5v4h-5V21.9984131z M11,27.9984131h5v4   h-5V27.9984131z M18,27.9984131h4v4h-4V27.9984131z M24,27.9984131h4v4h-4V27.9984131z M30,27.9984131h4v4h-4V27.9984131z    M30,25.9984131v-4h4v4H30z M30,19.9984131v-4h4v4H30z M30,13.9984131v-3h4v3H30z M28,13.9984131h-4v-3h4V13.9984131z    M22,13.9984131h-4v-3h4V13.9984131z M16,13.9984131h-5v-3h5V13.9984131z M11,33.9984131h5v2h-5V33.9984131z M18,33.9984131h4v2h-4   V33.9984131z M24,33.9984131h4v2h-4V33.9984131z M30,33.9984131h4v2h-4V33.9984131z M36,33.9984131h5v2h-5V33.9984131z    M36,31.9984131v-4h5v4H36z M36,25.9984131v-4h5v4H36z M36,19.9984131v-4h5v4H36z M36,13.9984131v-3h5v3H36z M4,38.4818115   V5.4124756l5,5v25.9267578L4,38.4818115z M43,36.3392334V10.4124756l5-5v33.0693359L43,36.3392334z"/><path d="M19.0010376,46.0015869c0,2.1999512-1.7900391,4-4,4c-2.210022,0-4-1.8000488-4-4c0-2.2099609,1.789978-4,4-4   C17.2109985,42.0015869,19.0010376,43.791626,19.0010376,46.0015869z"/></g><text x="0" y="67" fill="#000000" font-size="5px" font-weight="bold" font-family="'Helvetica Neue', Helvetica, Arial-Unicode, Arial, Sans-serif">Created by Dinosoft Labs</text><text x="0" y="72" fill="#000000" font-size="5px" font-weight="bold" font-family="'Helvetica Neue', Helvetica, Arial-Unicode, Arial, Sans-serif">from the Noun Project</text></svg>