<svg xmlns="http://www.w3.org/2000/svg" xmlns:xlink="http://www.w3.org/1999/xlink" version="1.1" x="0px" y="0px" viewBox="0 0 52 65" enable-background="new 0 0 52 52" xml:space="preserve"><g><path d="M8.9962206,36.5012398c3.3800049,0,7-1.0200195,7-3.25c0-2.2400513-3.6199951-3.25-7-3.25c-3.3699951,0-7,1.0099487-7,3.25   C1.9962208,35.4812202,5.6262255,36.5012398,8.9962206,36.5012398z"/><path d="M16.000433,37.7495918v-0.9724731c-1.5704355,1.0958252-3.9911509,1.7244263-7.0043955,1.7244263   c-3.0078125,0-5.4249268-0.6265869-6.9956055-1.71875v0.9667969c0,2.2333984,3.6284177,3.25,7,3.25   S16.000433,39.9829903,16.000433,37.7495918z"/><polygon points="41.8224525,8.3040352 47.0527382,11.1453438 48.0547523,9.2420845 42.9128456,6.4490547  "/><path d="M21.4262142,43.0012398h-7.9299936c-1.9299927,0-3.5,1.5700073-3.5,3.5s1.5700073,3.5,3.5,3.5h13.1000376   l19.5247784-37.0861206l-5.3126221-2.8861084L21.4262142,43.0012398z"/><path d="M48.7362099,2.4812205c-0.6399536-0.4299927-1.4400024-0.5800172-2.1900024-0.4199829   c-0.7599487,0.1699829-1.4299927,0.6499634-1.8299561,1.3200073l-0.7893677,1.3427732l5.0596313,2.748291l0.6796875-1.2910767   l0.0100098-0.0100098C50.356205,4.8712349,49.9462318,3.2812083,48.7362099,2.4812205z"/></g><text x="0" y="67" fill="#000000" font-size="5px" font-weight="bold" font-family="'Helvetica Neue', Helvetica, Arial-Unicode, Arial, Sans-serif">Created by Dinosoft Labs</text><text x="0" y="72" fill="#000000" font-size="5px" font-weight="bold" font-family="'Helvetica Neue', Helvetica, Arial-Unicode, Arial, Sans-serif">from the Noun Project</text></svg>