<svg xmlns="http://www.w3.org/2000/svg" xmlns:xlink="http://www.w3.org/1999/xlink" version="1.1" x="0px" y="0px" viewBox="0 0 52 65" enable-background="new 0 0 52 52" xml:space="preserve"><g><path d="M47.1800232,4.8200073C46.269989,3.9100342,44.940033,3.5,43.6200256,3.7200317   c-1.2600098,0.2099609-2.289978,0.9699707-2.8300171,2.0800171c-0.5199585,1.0799561-1.5499878,4.2699585-1.5999756,4.4099731   l-0.1900024,0.5800171l0.4000244,0.3999634l-28.210022,28.210022L10.7900085,39l-0.5799561,0.1900024   c-0.1400146,0.0400391-3.3300171,1.0800171-4.4000244,1.6000366c-1.1099854,0.539978-1.8699951,1.5700073-2.0899658,2.8299561   c-0.0400391,0.2300415-0.0600586,0.4700317-0.0600586,0.7000122c0,1.0700073,0.4100342,2.1000366,1.1600342,2.8599854   c0.75,0.75,1.7799683,1.1600342,2.8599854,1.1600342c0.2299805,0,0.4700317-0.0200195,0.7000122-0.0599976   c1.2600098-0.2200317,2.2999878-0.9700317,2.8300171-2.0800171c0.5199585-1.0800171,1.5599976-4.2700195,1.5999756-4.4099731   l0.1900024-0.5800171l-0.4000244-0.4000244l3.8736572-3.8736572C17.837677,46.4141235,22.0260315,50,26.0000305,50   c4.8400269,0,10-5.25,10-20c0-3.5754395-0.3526611-7.6486816-1.0274048-11.562561l5.8374023-5.8374023L41.2100525,13   l0.5899658-0.1900024c0.1300049-0.0499878,3.3200073-1.0799561,4.4000244-1.5999756   c1.1099854-0.539978,1.8699951-1.5700073,2.0799561-2.8300171c0.0400391-0.2299805,0.0599976-0.4699707,0.0599976-0.7000122   C48.3399963,6.6000366,47.9300232,5.5700073,47.1800232,4.8200073z M30.0027771,30.9992065v6h-8v-5.59198l4.3706665-4.3706665   C28.4060364,27.2263184,30.0027771,28.9170532,30.0027771,30.9992065z"/><path d="M34.0021667,13.8207397C32.3224182,7.2189331,29.6152039,2,26.0000305,2c-6.4400024,0-10,16.5599976-10,28   c0,0.6190186,0.0219727,1.1972046,0.0397949,1.7830811L34.0021667,13.8207397z"/></g><text x="0" y="67" fill="#000000" font-size="5px" font-weight="bold" font-family="'Helvetica Neue', Helvetica, Arial-Unicode, Arial, Sans-serif">Created by Dinosoft Labs</text><text x="0" y="72" fill="#000000" font-size="5px" font-weight="bold" font-family="'Helvetica Neue', Helvetica, Arial-Unicode, Arial, Sans-serif">from the Noun Project</text></svg>