<svg xmlns="http://www.w3.org/2000/svg" xmlns:xlink="http://www.w3.org/1999/xlink" version="1.1" x="0px" y="0px" viewBox="0 0 52 65" enable-background="new 0 0 52 52" xml:space="preserve"><g><polygon points="36,23 16,23 16,15 10.9984131,15 10.9984131,37 16,37 16,29 36,29 36,37 40.9984131,37 40.9984131,15 36,15  "/><polygon points="46,23 46,17 42.9984131,17 42.9984131,35 46,35 46,29 50,29 50,23  "/><polygon points="6,23 2,23 2,29 6,29 6,35 8.9984131,35 8.9984131,17 6,17  "/></g><text x="0" y="67" fill="#000000" font-size="5px" font-weight="bold" font-family="'Helvetica Neue', Helvetica, Arial-Unicode, Arial, Sans-serif">Created by Dinosoft Labs</text><text x="0" y="72" fill="#000000" font-size="5px" font-weight="bold" font-family="'Helvetica Neue', Helvetica, Arial-Unicode, Arial, Sans-serif">from the Noun Project</text></svg>