<svg xmlns="http://www.w3.org/2000/svg" xmlns:xlink="http://www.w3.org/1999/xlink" version="1.1" x="0px" y="0px" viewBox="0 0 52 65" enable-background="new 0 0 52 52" xml:space="preserve"><g><path d="M35.1450195,17.9494495c0-2.75,2.2399902-5,5-5c2.7599487,0,5,2.25,5,5c0,2.7600098-2.2400513,5-5,5   C37.3850098,22.9494495,35.1450195,20.7094593,35.1450195,17.9494495z"/><path d="M48.9249878,47.1493988l0.9299927,0.9299316l-1.4199829,1.4101563l-0.9299927-0.9301758   c-0.9299927-0.9299316-2.460022-0.9299316-3.4000244,0l-0.1900024,0.2001953c-1.7199707,1.7099609-4.5100098,1.7099609-6.2299805,0   l-0.1900024-0.2001953c-0.9400024-0.9299316-2.4699707-0.9299316-3.4000244,0l-0.1999512,0.2001953   c-0.8500366,0.8598633-1.9800415,1.2897949-3.1100464,1.2897949s-2.2599487-0.4299316-3.1199951-1.2897949l-0.1900024-0.2001953   c-0.9400024-0.9299316-2.4599609-0.9299316-3.3999634,0l-0.1900024,0.2001953   c-1.7200317,1.7099609-4.5200195,1.7099609-6.2300415,0l-0.1899414-0.2001953   c-0.9100342-0.9099121-2.3800049-0.9199219-3.3200073-0.0600586v1.4501953h-12v-16h7.6699829   c-0.2600098-0.1801758-0.5-0.3901367-0.7000122-0.6601563C8.2650146,32.1293793,8.414978,30.42943,9.4749756,29.3493519   l4.3900146-4.4799805l-2.6300049-2.6098633c-1.7799683-1.0500488-2.7199707-3.0200195-2.4099731-5.0600586   c0.3699951-2.4101563,2.5599976-4.2299805,5.0999756-4.2299805h8.0200195l-5.0900269-6.0700688   c-0.5100098-0.6000977-0.7600098-1.380127-0.7000122-2.1799316C16.2150269,3.91942,16.585022,3.1994493,17.1950073,2.66942   C17.8049927,2.1494005,18.5750122,1.8994005,19.375,1.9594591c0.7999878,0.0598145,1.5299683,0.4299316,2.0499878,1.0397949   l8.7800293,10.420166c1.9099731,0.8601074,3.0799561,2.8000488,2.9299927,4.9099121   c-0.1900024,2.6000977-2.460022,4.6401367-5.1799927,4.6401367h-7.4800415l1.8600464,1.8398438l-8.6500244,8.8200665   c-0.1199951,0.119873-0.25,0.2199707-0.3900146,0.3200684h0.8500366v6.2199707   c1.5799561-0.6201172,3.4499512-0.3000488,4.7299805,0.9799805l0.1900024,0.1899414   c0.9400024,0.9401855,2.4699707,0.9401855,3.4000244,0l0.1999512-0.1899414c1.710022-1.7199707,4.5100098-1.7199707,6.2300415,0   l0.1900024,0.1899414c0.9299927,0.9401855,2.4599609,0.9401855,3.3999634,0l0.1900024-0.1899414   c1.7200317-1.7199707,4.5200195-1.7199707,6.2299805,0l0.1900024,0.1899414c0.9100342,0.9099121,2.5,0.9099121,3.4100342,0   l0.1900024-0.1899414c1.7099609-1.7199707,4.5100098-1.7199707,6.2299805,0l0.9299927,0.9299316l-1.4199829,1.4101563   l-0.9299927-0.9301758c-0.9299927-0.9299316-2.460022-0.9299316-3.4000244,0l-0.1900024,0.2001953   c-1.7199707,1.7099609-4.5100098,1.7099609-6.2299805,0l-0.1900024-0.2001953   c-0.9400024-0.9299316-2.4699707-0.9299316-3.4000244,0l-0.1999512,0.2001953   c-0.8500366,0.8598633-1.9800415,1.2897949-3.1100464,1.2897949s-2.2599487-0.4299316-3.1199951-1.2897949l-0.1900024-0.2001953   c-0.9400024-0.9299316-2.4599609-0.9299316-3.3999634,0l-0.1900024,0.2001953   c-1.7200317,1.7099609-4.5200195,1.7099609-6.2300415,0l-0.1899414-0.2001953   c-0.9100342-0.9099121-2.3800049-0.9199219-3.3200073-0.0600586v3.670166   c1.5799561-0.6201172,3.4499512-0.3000488,4.7299805,0.9799805l0.1900024,0.1899414   c0.9400024,0.9401855,2.4699707,0.9401855,3.4000244,0l0.1999512-0.1899414c1.710022-1.7199707,4.5100098-1.7199707,6.2300415,0   l0.1900024,0.1899414c0.9299927,0.9401855,2.4599609,0.9401855,3.3999634,0l0.1900024-0.1899414   c1.7200317-1.7199707,4.5200195-1.7199707,6.2299805,0l0.1900024,0.1899414c0.9100342,0.9099121,2.5,0.9099121,3.4100342,0   l0.1900024-0.1899414C44.4049683,45.4294281,47.2050171,45.4294281,48.9249878,47.1493988z"/></g><text x="0" y="67" fill="#000000" font-size="5px" font-weight="bold" font-family="'Helvetica Neue', Helvetica, Arial-Unicode, Arial, Sans-serif">Created by Dinosoft Labs</text><text x="0" y="72" fill="#000000" font-size="5px" font-weight="bold" font-family="'Helvetica Neue', Helvetica, Arial-Unicode, Arial, Sans-serif">from the Noun Project</text></svg>