<svg xmlns="http://www.w3.org/2000/svg" xmlns:xlink="http://www.w3.org/1999/xlink" version="1.1" x="0px" y="0px" viewBox="0 0 52 65" enable-background="new 0 0 52 52" xml:space="preserve"><g><path d="M12.9612503,28.8655109c0.6199951,1.7399902,0.1900024,3.7000103-1.1099854,4.9899883l-9.2399902,9.25   c-0.8300171,0.8300171-0.8300171,2.1900024,0,3.0300293L5.851265,49.365509   c0.4199829,0.4199829,0.9699707,0.6300049,1.5100098,0.6300049c0.5499878,0,1.0999756-0.210022,1.5199585-0.6300049   l9.2399902-9.2399902c1.3000488-1.289978,3.2600098-1.7299805,5-1.0999756   c2.6384888,0.9462891,5.4890137,1.2474365,8.3375244,0.9153442L12.0464554,20.5285969   C11.7186356,23.3421955,12.0017166,26.1911945,12.9612503,28.8655109z"/><path d="M41.9611282,24.9754963c2.4209595,0,4.6173096,0.9656372,6.2366333,2.526123   c1.2037964-2.6537476,1.8134766-5.4418335,1.8134766-8.1760864c0-4.5900269-1.6799927-9.0100098-5.0100098-12.3500366   C37.9212723-0.1044599,25.8612747,0.4455279,18.1112747,8.195528c-2.835083,2.8300171-4.7508545,6.2991333-5.6368408,9.9329224   l21.3677979,21.3677959c0.2853394-0.0691528,0.5689697-0.1523438,0.8530884-0.2318115   c-1.0853882-1.4868164-1.7341919-3.3114624-1.7341919-5.2889404   C32.9611282,29.0130939,36.9987259,24.9754963,41.9611282,24.9754963z"/><circle cx="41.9612503" cy="33.9754944" r="7"/></g><text x="0" y="67" fill="#000000" font-size="5px" font-weight="bold" font-family="'Helvetica Neue', Helvetica, Arial-Unicode, Arial, Sans-serif">Created by Dinosoft Labs</text><text x="0" y="72" fill="#000000" font-size="5px" font-weight="bold" font-family="'Helvetica Neue', Helvetica, Arial-Unicode, Arial, Sans-serif">from the Noun Project</text></svg>