<svg xmlns="http://www.w3.org/2000/svg" xmlns:xlink="http://www.w3.org/1999/xlink" version="1.1" x="0px" y="0px" viewBox="0 0 52 65" enable-background="new 0 0 52 52" xml:space="preserve"><g><path d="M33.8489685,36.1359863l16.2028198-3.204834c-0.0067139-1.0095215-0.2164307-2.3859863-1.1135864-3.5571289   c-1.0299683-1.3701172-2.6999512-2.1201172-4.9400024-2.2399902h-0.1299438   c-0.0618896,0.0056152-4.09198,0.2485352-9.0783691-2.4272461l-2.8432617,2.8432617l-1.4140625-1.4140625l2.4865112-2.4865723   c-0.6052246-0.3977051-1.2186279-0.8432617-1.8356323-1.3361816l-2.2368164,2.2368164l-1.4140625-1.4140625l2.1328125-2.1328125   c-0.5258789-0.4909668-1.0508423-1.0264893-1.5731201-1.5987549l-2.1456299,2.1456299l-1.4140625-1.4140625l2.2576294-2.2575684   c-0.4556274-0.571167-0.9063721-1.1774902-1.3508911-1.8210449l-2.4926758,2.4926758l-1.4140625-1.4140625l2.7929688-2.7929688   c-0.5079956-0.8330078-1.0056763-1.7143555-1.4873047-2.6590576l-0.4199829-0.8199463l-0.8500366,0.3499756   c-0.1199951,0.0499268-11.8299561,4.789917-17.9499512-0.8199463L1.9482117,8.8640137v27.2719727H33.8489685z"/><path d="M34.044281,38.1359863H1.9482117v1.2879639c0,0.7200928,0.2900391,1.4200439,0.7900391,1.9200439   c0.5099487,0.5100098,1.1900024,0.7900391,1.9199829,0.7900391h0.2883911v1.0019531h2v-1.0019531h3v1.0019531h2v-1.0019531h3   v1.0019531h2v-1.0019531h3v1.0019531h2v-1.0019531h3v1.0019531h2v-1.0019531h3v1.0019531h2v-1.0019531h2.1016235   l0.8983765-0.1796875v1.1816406h2v-1.581665l3-0.5999756v1.1816406h2v-1.581665l3-0.5999756v1.1816406h2v-1.581665   l3.0015869-0.6003418V34.991333L34.044281,38.1359863z"/></g><text x="0" y="67" fill="#000000" font-size="5px" font-weight="bold" font-family="'Helvetica Neue', Helvetica, Arial-Unicode, Arial, Sans-serif">Created by Dinosoft Labs</text><text x="0" y="72" fill="#000000" font-size="5px" font-weight="bold" font-family="'Helvetica Neue', Helvetica, Arial-Unicode, Arial, Sans-serif">from the Noun Project</text></svg>