<svg xmlns="http://www.w3.org/2000/svg" xmlns:xlink="http://www.w3.org/1999/xlink" version="1.1" x="0px" y="0px" viewBox="0 0 52 65" enable-background="new 0 0 52 52" xml:space="preserve"><g><path d="M9.9989624,14.8392944C5.1535034,18.024231,2,22.2766113,2,26s3.1535034,7.975769,7.9989624,11.1607056V14.8392944z"/><path d="M39.9989624,13.6392822C35.9879761,11.4494629,31.1080933,10,26,10c-5.1090088,0-9.9896851,1.4498901-14.0010376,3.6403198   v24.7193604C16.0103149,40.5501099,20.8909912,42,26,42c5.1080933,0,9.9879761-1.4494629,13.9989624-3.6392822V13.6392822z    M34.9989624,29.0010376h-2v-2h-2v2h-2v-2h-2v2h-2v-2h-2v2h-2v-2h-2v2h-2v-2h-2v-2h2v-2h2v2h2v-2h2v2h2v-2h2v2h2v-2h2v2h2v-2h2v2h2   v2h-2V29.0010376z"/><path d="M41.9989624,14.8379517v22.3240967C46.8455811,33.9769287,50,29.723877,50,26S46.8455811,18.0230713,41.9989624,14.8379517   z"/></g><text x="0" y="67" fill="#000000" font-size="5px" font-weight="bold" font-family="'Helvetica Neue', Helvetica, Arial-Unicode, Arial, Sans-serif">Created by Dinosoft Labs</text><text x="0" y="72" fill="#000000" font-size="5px" font-weight="bold" font-family="'Helvetica Neue', Helvetica, Arial-Unicode, Arial, Sans-serif">from the Noun Project</text></svg>