<svg xmlns="http://www.w3.org/2000/svg" xmlns:xlink="http://www.w3.org/1999/xlink" version="1.1" x="0px" y="0px" viewBox="0 0 52 65" enable-background="new 0 0 52 52" xml:space="preserve"><g><path d="M31.4294262,33.1444931c4.4125957,0,9.1640606-1.9326153,12.897459-5.666502   c6.6279297-6.628418,7.5795898-16.4619141,2.1210938-21.9204102c-2.6723633-2.6723633-6.4443359-3.9082031-10.6235352-3.4736328   c-4.1010723,0.4243164-8.1127911,2.4111328-11.2963848,5.5952148c-4.9024048,4.9024043-6.6894531,11.5540771-5.0845947,16.8961182   c-0.1005859,0.7700806-0.6257324,3.8394165-2.7336426,6.4016113c-0.7828379-0.7410278-2.020875-0.7324219-2.7877207,0.0344849   L2.5920839,42.3513412c-0.7799681,0.7800293-0.7799681,2.039978,0,2.8200073l4.2399902,4.25   c0.3800049,0.3800049,0.8800049,0.5800171,1.4100342,0.5800171c0.539978,0,1.039978-0.2000122,1.4199829-0.5800171   l11.330018-11.3400269c0.7658691-0.7658691,0.7752075-1.9921875,0.0369873-2.7842407   c2.5498047-2.09375,5.6256104-2.6300049,6.4014282-2.734375C28.7039623,32.9453354,30.0481396,33.1444931,31.4294262,33.1444931z    M25.9421215,9.0932245c2.8598633-2.8598628,6.4428692-4.6430659,10.0878887-5.0200191   c0.4750977-0.0493164,0.9438477-0.0737305,1.4042969-0.0737305c2.9980469,0,5.6591797,1.0322266,7.5996094,2.972168   c4.6787109,4.6787105,3.7270508,13.2436523-2.1210938,19.0922852c-5.8486328,5.8481445-14.4140606,6.7998028-19.0922832,2.1210938   C19.1418285,23.5063114,20.0934887,14.9418573,25.9421215,9.0932245z M19.6115551,33.8708115l-1.4763184-1.4763184   c1.3654785-1.6086407,2.1779785-3.383604,2.656189-4.8391094c0.458313,0.729126,0.9894409,1.4180908,1.6150513,2.0437012   c0.6243286,0.6243286,1.3085327,1.1600342,2.0360107,1.6177979C22.9885693,31.6954594,21.2169628,32.5078964,19.6115551,33.8708115   z"/><circle cx="41.0021172" cy="40.0013657" r="6"/></g><text x="0" y="67" fill="#000000" font-size="5px" font-weight="bold" font-family="'Helvetica Neue', Helvetica, Arial-Unicode, Arial, Sans-serif">Created by Dinosoft Labs</text><text x="0" y="72" fill="#000000" font-size="5px" font-weight="bold" font-family="'Helvetica Neue', Helvetica, Arial-Unicode, Arial, Sans-serif">from the Noun Project</text></svg>