<svg xmlns="http://www.w3.org/2000/svg" xmlns:xlink="http://www.w3.org/1999/xlink" version="1.1" x="0px" y="0px" viewBox="0 0 52 65" enable-background="new 0 0 52 52" xml:space="preserve"><g><path d="M40.0322266,23.0322266c-0.1326904,0-0.2615967,0.0146484-0.3930054,0.0198975L38.1326904,11H41   c1.1030273,0,2,0.8974609,2,2s-0.8969727,2-2,2v2c2.2055664,0,4-1.7939453,4-4s-1.7944336-4-4-4h-8v2h3.1173096l0.875,7H14.1928711   l-1.1089478,5.1311035c-0.3671265-0.0410156-0.7387085-0.0666504-1.1166382-0.0666504   C6.4711914,23.0644531,2,27.5361328,2,33.0322266S6.4711914,43,11.9672852,43s9.9672852-4.4716797,9.9672852-9.9677734   c0-4.4239502-2.8990479-8.1794434-6.8955688-9.4781494L15.8071289,20h21.4351807l0.4161987,3.329834   C33.3067627,24.3989258,30.0649414,28.3231201,30.0649414,33c0,5.4960938,4.4711914,9.9667969,9.9672852,9.9667969   S50,38.4960938,50,33S45.5283203,23.0322266,40.0322266,23.0322266z M19.9345703,33.0322266   C19.9345703,37.4257813,16.3603516,41,11.9672852,41S4,37.4257813,4,33.0322266s3.5742188-7.9677734,7.9672852-7.9677734   c0.2333374,0,0.4629517,0.0152588,0.6912842,0.0350342l-1.6688232,7.7218018l1.9550781,0.421875l1.6680298-7.7175293   C17.7075195,26.6199951,19.9345703,29.5671387,19.9345703,33.0322266z M40.0322266,40.9667969   c-4.3930664,0-7.9672852-3.5742188-7.9672852-7.9667969c0-3.6571045,2.4796753-6.7385254,5.8434448-7.6715088l1.0994263,8.7955322   l1.984375-0.2480469l-1.1045532-8.8364258c0.048584-0.0008545,0.0957642-0.0073242,0.1445923-0.0073242   C44.4257813,25.0322266,48,28.6064453,48,33C48,37.3925781,44.4257813,40.9667969,40.0322266,40.9667969z"/><rect x="10" y="14" width="7" height="2"/></g><text x="0" y="67" fill="#000000" font-size="5px" font-weight="bold" font-family="'Helvetica Neue', Helvetica, Arial-Unicode, Arial, Sans-serif">Created by Dinosoft Labs</text><text x="0" y="72" fill="#000000" font-size="5px" font-weight="bold" font-family="'Helvetica Neue', Helvetica, Arial-Unicode, Arial, Sans-serif">from the Noun Project</text></svg>