<svg xmlns="http://www.w3.org/2000/svg" xmlns:xlink="http://www.w3.org/1999/xlink" version="1.1" x="0px" y="0px" viewBox="0 0 52 65" enable-background="new 0 0 52 52" xml:space="preserve"><g><path d="M18.4309998,13.6174316c0.0842896,0.4729004,0.1803589,0.9451904,0.3060913,1.4145508   c0.3589478,1.3397217,0.8910522,2.6000977,1.5470581,3.7822266c10.1928711-8.9423828,22.7404785-4.7297363,27.6265869-2.5256348   c-1.8756104-4.2214355-4.9316406-7.8034668-8.7498169-10.3251953C36.4994202,5.2772217,27.3768616,3.8852539,18.4309998,13.6174316   z"/><path d="M21.9125671,35.5895996C8.7534485,30.6049805,6.919342,17.0200195,6.723114,11.6784668   c-2.6846313,3.5987549-4.3795776,7.9743652-4.6935425,12.7229004c0.5708618,2.3856201,3.4910278,11.1811523,15.9638672,15.1176758   C19.5089417,38.4360352,20.8340759,37.1086426,21.9125671,35.5895996z"/><path d="M15.7530823,40.8642578C8.4751892,38.1650391,4.5007629,33.8500977,2.358429,30.2683105   c0.8553467,4.7397461,3.1056519,8.9987793,6.3119507,12.3376465   C11.2122498,42.5581055,13.6107483,41.9343262,15.7530823,40.8642578z"/><path d="M10.6596985,44.4641113c2.8952637,2.4051514,6.3637085,4.1396484,10.1652832,4.9741211l0.2783203-0.1494141   c0.6638794-0.3571777,15.9450073-8.7854004,12.6314087-24.6018066c-2.3121338,0.1445313-4.6205444,0.7751465-6.7817993,1.9335938   C26.6445007,35.8254395,19.641449,43.3492432,10.6596985,44.4641113z"/><path d="M49.6283264,30.012207C49.8492737,28.706543,49.9704285,27.3674316,49.9704285,26   c0-2.4245605-0.3644409-4.7644043-1.0357056-6.9716797c-1.00177-0.5874023-15.9137573-9.0391846-27.5649414,1.4956055   c1.24823,1.7121582,2.8252563,3.1745605,4.6722412,4.3186035C34.1611023,20.5119629,44.1684875,22.807251,49.6283264,30.012207z"/><path d="M41.1557312,25.921875c-1.7119141-0.7070313-3.5286865-1.1359863-5.3815918-1.2478027   c2.6210938,13.6342773-7.6105957,22.269165-11.9078979,25.2280273C24.5602722,49.9628906,25.2609558,50,25.9704285,50   c3.9159546,0,7.612793-0.949707,10.8822632-2.6213379C38.9487,45.0151367,43.9701233,37.8482666,41.1557312,25.921875z"/><path d="M43.4405823,27.0610352c1.4751587,7.8519287-0.2520752,13.6906738-2.2489624,17.4777832   C44.8857117,41.5,47.6539001,37.3793945,49.0198669,32.6691895C47.5901794,30.302002,45.6632996,28.4084473,43.4405823,27.0610352z   "/><path d="M8.7229309,9.6247559c-0.0562134,0.7727051-1.1575317,18.703125,14.2789307,24.2324219   c1.184021-2.1962891,1.8726196-4.690918,1.9561157-7.3363037c-4.0266113-2.5047607-6.9193726-6.3687744-8.1525269-10.9713135   c-0.2218018-0.8277588-0.364624-1.6623535-0.4714355-2.4979248l-0.0285645-0.069458   c0.0060425-0.006958,0.012207-0.0130615,0.0182495-0.0200195c-0.3969116-3.2287598,0.0532837-6.4735107,1.3262939-9.4731445   c-3.3962402,1.2590332-6.4291382,3.2685547-8.90448,5.8225098L8.7229309,9.6247559z"/><path d="M18.1860046,10.9953613c5.920166-5.7993164,11.9411621-7.3059082,16.2533569-7.4477539   C31.8038635,2.550293,28.950592,2,25.9704285,2c-1.9694214,0-3.8823853,0.2434082-5.715332,0.6931152   C18.8297424,5.2706299,18.1348572,8.1166992,18.1860046,10.9953613z"/></g><text x="0" y="67" fill="#000000" font-size="5px" font-weight="bold" font-family="'Helvetica Neue', Helvetica, Arial-Unicode, Arial, Sans-serif">Created by Dinosoft Labs</text><text x="0" y="72" fill="#000000" font-size="5px" font-weight="bold" font-family="'Helvetica Neue', Helvetica, Arial-Unicode, Arial, Sans-serif">from the Noun Project</text></svg>