<svg xmlns="http://www.w3.org/2000/svg" viewBox="0 0 47.41 47.41"><title>arc</title><g id="Calque_2" data-name="Calque 2"><g id="Calque_1-2" data-name="Calque 1"><path d="M40.41,13.41l7-7H41V0L34,7v5l-.61.61h0l-.26.25-2.57,2.58h0l-1.41,1.41h0l-1.41,1.42h0l-1.42,1.42h0l-1.42,1.43h0l-1.42,1.42h0L22,24h0l-1.5,1.5a2.24,2.24,0,0,0-.51-.07,2,2,0,1,0,2,2,2.24,2.24,0,0,0-.07-.51l1.51-1.51a4,4,0,0,1,.56,2,4,4,0,1,1-4.31-4l1.83-1.83a6.33,6.33,0,0,0-1.52-.2,6,6,0,1,0,6,6A5.91,5.91,0,0,0,24.88,24l1.43-1.43A8,8,0,1,1,20,19.41a7.81,7.81,0,0,1,3.1.63l1.5-1.5A9.9,9.9,0,0,0,20,17.41a10,10,0,1,0,10,10,9.88,9.88,0,0,0-2.27-6.31l1.42-1.42a12,12,0,1,1-3.09-2.61l1.46-1.45a14.19,14.19,0,1,0,3,2.65L32,16.86a15.84,15.84,0,0,1,4,10.55,16,16,0,1,1-7-13.24l2.74-2.75.11-.11a20.15,20.15,0,1,0,3,2.71l.61-.61Z"/></g></g></svg>