<svg xmlns="http://www.w3.org/2000/svg" viewBox="0 0 35.74 48.58"><title>badminton</title><g id="Calque_2" data-name="Calque 2"><g id="Calque_1-2" data-name="Calque 1"><path d="M35,1.81a4.26,4.26,0,0,0-6.84-.17l0-.06A4.29,4.29,0,0,0,24.76,0h-.19a4.28,4.28,0,0,0-3.28,1.57l-.16-.21A4.32,4.32,0,0,0,18,0h-.25a4.33,4.33,0,0,0-3.14,1.36c-.06.07-.1.14-.15.21A4.28,4.28,0,0,0,11.17,0H11A4.26,4.26,0,0,0,7.66,1.58s0,0,0,.06A4.27,4.27,0,0,0,.24,5.7L10.8,35.6v2.88H25V35.61L35.5,5.7A4.28,4.28,0,0,0,35,1.81ZM20.71,34.43h-.55l.29-4.08h1.12Zm-2.56,0h-.56l-.29-4.08h1.14Zm-2.57,0H15l-.87-4.08H15.3Zm-2.59,0H12.5l-1.44-4.08h1.07Zm9.76,0,.86-4.08h1.07l-1.44,4.08ZM24.57,2h.19A2.28,2.28,0,0,1,27,4.75l-5,23.6h-1.4L22.3,4.12A2.28,2.28,0,0,1,24.57,2Zm-8.49.73A2.25,2.25,0,0,1,17.75,2H18a2.26,2.26,0,0,1,1.67.73,2.23,2.23,0,0,1,.6,1.71L19,23.14l-.37,5.21H17.16l-.34-4.8L15.47,4.44A2.24,2.24,0,0,1,16.08,2.73Zm-6.87.11A2.29,2.29,0,0,1,11,2h.19a2.28,2.28,0,0,1,2.27,2.12l1.72,24.23H13.75l-5-23.6A2.3,2.3,0,0,1,9.21,2.84ZM2.42,3A2.25,2.25,0,0,1,4.28,2,2.29,2.29,0,0,1,6.51,3.81l.28,1.35h0l4,19,.89,4.18H10.36L2.13,5A2.27,2.27,0,0,1,2.42,3ZM33.61,5,25.39,28.35H24l1.19-5.61L29,5.17h0l.29-1.35A2.28,2.28,0,0,1,33.33,3,2.27,2.27,0,0,1,33.61,5Z"/><path d="M10.8,41.51a7.08,7.08,0,0,0,14.15,0v-1H10.8Z"/></g></g></svg>