<svg xmlns="http://www.w3.org/2000/svg" viewBox="0 0 48 48"><title>basket</title><g id="Calque_2" data-name="Calque 2"><g id="Calque_1-2" data-name="Calque 1"><path d="M40.81,7.73c-8,2.79-13.38,8.76-13.39,14.54A52,52,0,0,1,48,25c0-.33,0-.67,0-1A23.86,23.86,0,0,0,41.42,7.52Z"/><path d="M1.38,16.69c6.29.82,11.15,3.81,13.35,8,1.36-.44,2.81-.84,4.34-1.19a65.49,65.49,0,0,1,.14-23V.48A24.11,24.11,0,0,0,1.15,16.66Z"/><path d="M47.67,27a49.93,49.93,0,0,0-20-2.76s0,.09,0,.13c1.43,6,8.91,9.85,17.78,9.2l.59,0a23.92,23.92,0,0,0,1.78-6.48Z"/><path d="M21.16,1A63.71,63.71,0,0,0,21,23.11c1.42-.27,2.88-.5,4.41-.67C25.28,15.79,30.94,9.16,39.82,6A23.91,23.91,0,0,0,24,0a23.45,23.45,0,0,0-2.66.15Z"/><path d="M19.46,25.47c-1.39.33-2.72.69-4,1.09.08.24.15.48.21.73,1.25,5.2-1.33,10.82-6.88,15l-.16.13A23.94,23.94,0,0,0,31.78,46.7C24.71,40.85,21.14,33,19.46,25.47Z"/><path d="M43.45,35.66c-9,0-16.18-4.27-17.74-10.81,0-.14-.05-.29-.07-.43-1.47.16-2.88.38-4.23.64,1.62,7.25,5,14.73,11.84,20.27l.65.53A24.11,24.11,0,0,0,45,35.6C44.48,35.63,44,35.66,43.45,35.66Z"/><path d="M13.76,27.75c0-.19-.11-.37-.16-.55A46.49,46.49,0,0,0,2.15,33l-.29.23a24.09,24.09,0,0,0,5.29,7.82l.46-.35C12.51,37,14.81,32.16,13.76,27.75Z"/><path d="M12.82,25.37c-2-3.49-6.21-6-11.7-6.69l-.5-.07a23.82,23.82,0,0,0,.52,12.68A49.73,49.73,0,0,1,12.82,25.37Z"/></g></g></svg>