<svg xmlns="http://www.w3.org/2000/svg" viewBox="0 0 47.92 47.65"><title>foot</title><g id="Calque_2" data-name="Calque 2"><g id="Calque_1-2" data-name="Calque 1"><path d="M32.59,47.65,31.41,46c9.87-7.23,14.75-14.83,14.5-22.61C45.51,10.79,31.6,1.78,31.46,1.69L32.54,0c.61.39,14.93,9.69,15.37,23.37C48.18,31.84,43,40,32.59,47.65Z"/><rect x="5" y="8.84" width="6" height="2"/><polygon points="22.21 15.41 24.17 18.8 28.02 18.8 29.99 15.4 28.05 12.04 24.16 12.04 22.21 15.41"/><polygon points="28.22 20.8 23.98 20.8 22.22 23.84 23.98 26.88 28.22 26.88 29.98 23.84 28.22 20.8"/><path d="M15.22,12.06l1.71,2.36h3.55l1.92-3.33L20.78,8.74A15.93,15.93,0,0,0,15.22,12.06Z"/><path d="M29.8,11.06l1.94,3.36h3.47l1.26-2.64a15.74,15.74,0,0,0-5.25-3Z"/><path d="M38.33,34a16,16,0,0,0,2.78-5H39l-1.91,3.31Z"/><polygon points="20.49 22.84 22.33 19.64 20.48 16.42 16.77 16.42 14.92 19.63 16.77 22.84 20.49 22.84"/><path d="M13.8,13.51a15.94,15.94,0,0,0-2.91,5.12h2.3l1.91-3.31Z"/><path d="M38,13.27l-.93,2,2,3.41h2.09A15.93,15.93,0,0,0,38,13.27Z"/><path d="M13.79,34.17l1.31-1.82L13.19,29H10.88A16,16,0,0,0,13.79,34.17Z"/><path d="M22.44,36.65l-2-3.4H16.92l-1.71,2.37a15.94,15.94,0,0,0,6,3.48Z"/><path d="M28,37.63H24.19l-1,1.95a15.52,15.52,0,0,0,2.83.27,16,16,0,0,0,3-.3Z"/><path d="M24.11,10h4l1.15-1.87A16.28,16.28,0,0,0,26,7.85a15.81,15.81,0,0,0-3.18.32Z"/><path d="M13.19,27,15,23.84l-1.85-3.21H10.32A16.21,16.21,0,0,0,10,23.85,16,16,0,0,0,10.32,27Z"/><polygon points="16.77 31.25 20.48 31.25 22.33 28.03 20.49 24.84 16.77 24.84 14.92 28.04 16.77 31.25"/><path d="M39,20.63l-1.86,3.21L39,27h2.66A16,16,0,0,0,42,23.85a15.49,15.49,0,0,0-.33-3.22Z"/><polygon points="35.43 16.42 31.73 16.42 29.87 19.66 31.71 22.84 35.43 22.84 37.29 19.63 35.43 16.42"/><path d="M35.29,33.25H31.74l-2,3.4L31,39a16.11,16.11,0,0,0,5.92-3.53Z"/><polygon points="29.99 32.27 28.02 28.88 24.17 28.88 22.21 32.26 24.16 35.63 28.05 35.63 29.99 32.27"/><polygon points="31.71 24.84 29.87 28.02 31.73 31.25 35.43 31.25 37.29 28.04 35.43 24.84 31.71 24.84"/><rect y="22.84" width="6" height="2"/></g></g></svg>