<svg xmlns="http://www.w3.org/2000/svg" viewBox="0 0 48 48"><title>hand</title><g id="Calque_2" data-name="Calque 2"><g id="Calque_1-2" data-name="Calque 1"><path d="M48,0H0V39.52L8.2,36H39.8L48,39.52ZM39.59,7H8.41l-5-5H44.59ZM9,14h5v4H9Zm13,6h4v4H22Zm-2,4H16V20h4Zm2-6V14h4v4Zm-2,0H16V14h4ZM9,20h5v4H9Zm0,6h5v4H9Zm7,0h4v4H16Zm6,0h4v4H22Zm6,0h4v4H28Zm0-2V20h4v4Zm0-6V14h4v4Zm0-6V9h4v3Zm-2,0H22V9h4Zm-6,0H16V9h4Zm-6,0H9V9h5ZM9,32h5v2H9Zm7,0h4v2H16Zm6,0h4v2H22Zm6,0h4v2H28Zm6,0h5v2H34Zm0-2V26h5v4Zm0-6V20h5v4Zm0-6V14h5v4Zm0-6V9h5v3ZM2,36.48V3.41l5,5V34.34Zm39-2.14V8.41l5-5V36.48Z"/><path d="M17,44a4,4,0,1,1-4-4A4,4,0,0,1,17,44Z"/></g></g></svg>