<svg xmlns="http://www.w3.org/2000/svg" viewBox="0 0 48.01 48"><title>hockey</title><g id="Calque_2" data-name="Calque 2"><g id="Calque_1-2" data-name="Calque 1"><path d="M7,34.5c3.38,0,7-1,7-3.25S10.38,28,7,28s-7,1-7,3.25S3.63,34.5,7,34.5Z"/><path d="M14,35.75v-1A12.45,12.45,0,0,1,7,36.5a12.37,12.37,0,0,1-7-1.72v1C0,38,3.63,39,7,39S14,38,14,35.75Z"/><polygon points="39.83 6.3 45.06 9.15 46.06 7.24 40.92 4.45 39.83 6.3"/><path d="M19.43,41H11.5a3.5,3.5,0,0,0,0,7H24.6L44.12,10.92,38.81,8Z"/><path d="M46.74.48a2.83,2.83,0,0,0-4,.9l-.79,1.35L47,5.47l.68-1.29h0A2.84,2.84,0,0,0,46.74.48Z"/></g></g></svg>