<svg xmlns="http://www.w3.org/2000/svg" viewBox="0 0 44.68 48"><title>Fichier 1</title><g id="Calque_2" data-name="Calque 2"><g id="Calque_1-2" data-name="Calque 1"><path d="M43.52,2.82A4.08,4.08,0,0,0,40,1.72,3.79,3.79,0,0,0,37.13,3.8c-.52,1.08-1.55,4.27-1.6,4.41l-.19.58.4.4L7.53,37.4l-.4-.4-.58.19c-.14,0-3.33,1.08-4.4,1.6A3.82,3.82,0,0,0,.06,41.62a4.14,4.14,0,0,0-.06.7,4.06,4.06,0,0,0,1.16,2.86A4,4,0,0,0,4,46.34a4.14,4.14,0,0,0,.7-.06A3.79,3.79,0,0,0,7.55,44.2c.52-1.08,1.56-4.27,1.6-4.41l.19-.58-.4-.4,3.87-3.87C14.18,44.41,18.37,48,22.34,48c4.84,0,10-5.25,10-20a69.36,69.36,0,0,0-1-11.56l5.84-5.84.4.4.59-.19c.13-.05,3.32-1.08,4.4-1.6a3.79,3.79,0,0,0,2.08-2.83,4.14,4.14,0,0,0,.06-.7A4,4,0,0,0,43.52,2.82ZM26.34,29v6h-8V29.41L22.71,25A4,4,0,0,1,26.34,29Z"/><path d="M30.34,11.82C28.66,5.22,26,0,22.34,0c-6.44,0-10,16.56-10,28,0,.62,0,1.2,0,1.78Z"/></g></g></svg>