<svg xmlns="http://www.w3.org/2000/svg" viewBox="0 0 47.71 48.1"><title>natation</title><g id="Calque_2" data-name="Calque 2"><g id="Calque_1-2" data-name="Calque 1"><path d="M33,16a5,5,0,1,1,5,5A5,5,0,0,1,33,16Z"/><path d="M46.78,45.2l.93.93-1.42,1.41-.93-.93a2.42,2.42,0,0,0-3.4,0l-.19.2a4.42,4.42,0,0,1-6.23,0l-.19-.2a2.42,2.42,0,0,0-3.4,0l-.2.2a4.41,4.41,0,0,1-6.23,0l-.19-.2a2.42,2.42,0,0,0-3.4,0l-.19.2a4.42,4.42,0,0,1-6.23,0l-.19-.2A2.41,2.41,0,0,0,12,46.55V48H0V32H7.67a2.91,2.91,0,0,1-.7-.66,3.09,3.09,0,0,1,.36-3.94l4.39-4.48L9.09,20.31a5,5,0,0,1-2.41-5.06A5.12,5.12,0,0,1,11.78,11h8L14.71,5A3,3,0,0,1,17.23,0a3,3,0,0,1,2.05,1l8.78,10.42A5,5,0,0,1,31,16.38,5.13,5.13,0,0,1,25.81,21H18.33l1.86,1.84-8.65,8.82a3,3,0,0,1-.39.32H12v6.22a4.41,4.41,0,0,1,4.73,1l.19.19a2.4,2.4,0,0,0,3.4,0l.2-.19a4.41,4.41,0,0,1,6.23,0l.19.19a2.4,2.4,0,0,0,3.4,0l.19-.19a4.41,4.41,0,0,1,6.23,0l.19.19a2.47,2.47,0,0,0,3.41,0l.19-.19a4.41,4.41,0,0,1,6.23,0l.93.93-1.42,1.41-.93-.93a2.42,2.42,0,0,0-3.4,0l-.19.2a4.42,4.42,0,0,1-6.23,0l-.19-.2a2.42,2.42,0,0,0-3.4,0l-.2.2a4.41,4.41,0,0,1-6.23,0l-.19-.2a2.42,2.42,0,0,0-3.4,0l-.19.2a4.42,4.42,0,0,1-6.23,0l-.19-.2A2.41,2.41,0,0,0,12,40.55v3.67a4.41,4.41,0,0,1,4.73,1l.19.19a2.4,2.4,0,0,0,3.4,0l.2-.19a4.41,4.41,0,0,1,6.23,0l.19.19a2.4,2.4,0,0,0,3.4,0l.19-.19a4.41,4.41,0,0,1,6.23,0l.19.19a2.47,2.47,0,0,0,3.41,0l.19-.19A4.41,4.41,0,0,1,46.78,45.2Z"/></g></g></svg>