<svg xmlns="http://www.w3.org/2000/svg" viewBox="0 0 48.02 47.99"><title>ping</title><g id="Calque_2" data-name="Calque 2"><g id="Calque_1-2" data-name="Calque 1"><path d="M11,26.86a4.79,4.79,0,0,1-1.11,5L.62,41.1a2.15,2.15,0,0,0,0,3l3.24,3.23a2.14,2.14,0,0,0,3,0l9.24-9.24a4.8,4.8,0,0,1,5-1.1,18.36,18.36,0,0,0,8.34.92L10.06,18.52A18.31,18.31,0,0,0,11,26.86Z"/><path d="M40,23a9,9,0,0,1,6.24,2.53A19.9,19.9,0,0,0,48,17.32,17.32,17.32,0,0,0,43,5C35.93-2.11,23.87-1.56,16.12,6.19a21.16,21.16,0,0,0-5.63,9.93L31.85,37.49l.86-.23A8.92,8.92,0,0,1,31,32,9,9,0,0,1,40,23Z"/><circle cx="39.97" cy="31.97" r="7"/></g></g></svg>