<svg xmlns="http://www.w3.org/2000/svg" viewBox="0 0 48.1 34.27"><title>rando</title><g id="Calque_2" data-name="Calque 2"><g id="Calque_1-2" data-name="Calque 1"><path d="M31.9,27.27l16.2-3.2A5.82,5.82,0,0,0,47,20.51a6.26,6.26,0,0,0-4.94-2.24h-.13a18.39,18.39,0,0,1-9.08-2.43L30,18.69l-1.42-1.42,2.49-2.48c-.6-.4-1.22-.85-1.83-1.34L27,15.69l-1.42-1.42,2.14-2.13c-.53-.49-1-1-1.58-1.6L24,12.69l-1.42-1.42L24.84,9c-.45-.57-.9-1.17-1.35-1.82L21,9.69,19.58,8.27l2.8-2.79c-.51-.83-1-1.72-1.49-2.66L20.47,2l-.85.35c-.12,0-11.83,4.79-18-.82L0,0V27.27Z"/><path d="M32.1,29.27H0v1.29a2.73,2.73,0,0,0,.79,1.92,2.69,2.69,0,0,0,1.92.79H3v1H5v-1H8v1h2v-1h3v1h2v-1h3v1h2v-1h3v1h2v-1h3v1h2v-1h2.1l.9-.18v1.18h2V32.69l3-.6v1.18h2V31.69l3-.6v1.18h2V30.69l3-.6v-4Z"/></g></g></svg>