<svg xmlns="http://www.w3.org/2000/svg" viewBox="0 0 48 32"><title>rugby</title><g id="Calque_2" data-name="Calque 2"><g id="Calque_1-2" data-name="Calque 1"><path d="M8,4.84C3.15,8,0,12.28,0,16s3.15,8,8,11.16Z"/><path d="M38,3.64A29.54,29.54,0,0,0,24,0,29.54,29.54,0,0,0,10,3.64V28.36A29.54,29.54,0,0,0,24,32a29.54,29.54,0,0,0,14-3.64ZM33,19H31V17H29v2H27V17H25v2H23V17H21v2H19V17H17v2H15V17H13V15h2V13h2v2h2V13h2v2h2V13h2v2h2V13h2v2h2V13h2v2h2v2H33Z"/><path d="M40,4.84V27.16C44.85,24,48,19.72,48,16S44.85,8,40,4.84Z"/></g></g></svg>