<svg xmlns="http://www.w3.org/2000/svg" viewBox="0 0 47.99 48"><title>tennis</title><g id="Calque_2" data-name="Calque 2"><g id="Calque_1-2" data-name="Calque 1"><path d="M29.42,31.15a18.6,18.6,0,0,0,12.9-5.67C49,18.85,49.9,9,44.44,3.56A12.78,12.78,0,0,0,33.82.09a18.91,18.91,0,0,0-11.3,5.59c-4.9,4.9-6.69,11.55-5.08,16.9A13.4,13.4,0,0,1,14.7,29a2,2,0,0,0-2.79,0L.58,40.35a2,2,0,0,0,0,2.82l4.24,4.25a2,2,0,0,0,2.83,0L19,36.08a2,2,0,0,0,0-2.78,13.58,13.58,0,0,1,6.4-2.74A13.68,13.68,0,0,0,29.42,31.15ZM23.94,7.09A16.9,16.9,0,0,1,34,2.07C34.5,2,35,2,35.43,2A10.53,10.53,0,0,1,43,5c4.68,4.68,3.72,13.25-2.12,19.1s-14.42,6.8-19.1,2.12S18.09,12.94,23.94,7.09ZM17.6,31.87,16.13,30.4a14.47,14.47,0,0,0,2.65-4.84,11.42,11.42,0,0,0,3.66,3.66A14.55,14.55,0,0,0,17.6,31.87Z"/><circle cx="39" cy="38" r="6"/></g></g></svg>