<svg xmlns="http://www.w3.org/2000/svg" viewBox="0 0 48 34"><title>velo</title><g id="Calque_2" data-name="Calque 2"><g id="Calque_1-2" data-name="Calque 1"><path d="M38,14l-.39,0L36.13,2H39a2,2,0,0,1,0,4V8a4,4,0,0,0,0-8H31V2h3.12L35,9H12.19l-1.11,5.13a9.94,9.94,0,1,0,2,.42L13.81,11H35.24l.42,3.33A9.92,9.92,0,1,0,38,14ZM17.93,24a8,8,0,1,1-8-8c.23,0,.46,0,.69,0L9,23.82l1.95.42,1.67-7.71A8,8,0,0,1,17.93,24ZM38,32a8,8,0,0,1-2.12-15.64L37,25.12l2-.24L37.89,16H38A8,8,0,0,1,38,32Z"/><rect x="8" y="5" width="7" height="2"/></g></g></svg>