<svg xmlns="http://www.w3.org/2000/svg" viewBox="0 0 47.94 48"><title>volley</title><g id="Calque_2" data-name="Calque 2"><g id="Calque_1-2" data-name="Calque 1"><path d="M16.4,11.62c.09.47.18.94.31,1.41a16.94,16.94,0,0,0,1.54,3.78C28.45,7.87,41,12.08,45.88,14.29A24.16,24.16,0,0,0,37.13,4C34.47,3.28,25.35,1.89,16.4,11.62Z"/><path d="M19.88,33.59C6.72,28.6,4.89,15,4.69,9.68A23.86,23.86,0,0,0,0,22.4c.57,2.39,3.49,11.18,16,15.12A16.62,16.62,0,0,0,19.88,33.59Z"/><path d="M13.72,38.86C6.45,36.17,2.47,31.85.33,28.27A23.89,23.89,0,0,0,6.64,40.61,16.52,16.52,0,0,0,13.72,38.86Z"/><path d="M8.63,42.46a24,24,0,0,0,10.17,5l.27-.15c.67-.36,16-8.79,12.64-24.6a16.4,16.4,0,0,0-6.79,1.93A18.62,18.62,0,0,1,8.63,42.46Z"/><path d="M47.6,28a24,24,0,0,0-.69-11c-1-.59-15.92-9-27.57,1.49A16.48,16.48,0,0,0,24,22.84,18.65,18.65,0,0,1,47.6,28Z"/><path d="M39.13,23.92a16.94,16.94,0,0,0-5.39-1.25c2.63,13.64-7.61,22.27-11.9,25.23.69.06,1.39.1,2.1.1a23.84,23.84,0,0,0,10.88-2.62C36.92,43,41.94,35.85,39.13,23.92Z"/><path d="M41.41,25.06c1.48,7.85-.25,13.69-2.25,17.48A24.07,24.07,0,0,0,47,30.67,16.55,16.55,0,0,0,41.41,25.06Z"/><path d="M6.69,7.62C6.64,8.4,5.54,26.33,21,31.86a16.54,16.54,0,0,0,2-7.34,18.44,18.44,0,0,1-8.15-11,18.06,18.06,0,0,1-.48-2.5l0-.07v0a18.5,18.5,0,0,1,1.33-9.47,24,24,0,0,0-8.9,5.82Z"/><path d="M16.16,9C22.08,3.2,28.1,1.69,32.41,1.55A23.94,23.94,0,0,0,18.23.69,16.49,16.49,0,0,0,16.16,9Z"/></g></g></svg>